<svg version="1.1" id="Layer_1" xmlns="http://www.w3.org/2000/svg" xmlns:xlink="http://www.w3.org/1999/xlink" x="0px" y="0px"
	 width="100%" viewBox="0 0 512 512" enable-background="new 0 0 512 512" xml:space="preserve">
<path fill="#000000" opacity="1.000000" stroke="none" 
	d="
M349.000000,513.000000 
	C232.694931,513.000000 116.889854,513.000000 1.042388,513.000000 
	C1.042388,342.403229 1.042388,171.806458 1.042388,1.104843 
	C171.555084,1.104843 342.110229,1.104843 512.832703,1.104843 
	C512.832703,171.666534 512.832703,342.333252 512.832703,513.000000 
	C458.473053,513.000000 403.986542,513.000000 349.000000,513.000000 
M134.273102,146.234879 
	C126.180687,149.545715 118.088280,152.856552 109.264153,156.261398 
	C99.177216,160.228485 89.090279,164.195572 78.277847,168.236969 
	C65.119049,173.485245 51.957649,178.726990 38.803249,183.986252 
	C35.420811,185.338593 33.178230,187.321335 32.883987,191.459595 
	C32.554474,196.093903 34.223240,199.039261 38.374146,200.735550 
	C43.884933,202.987564 49.411125,205.202255 54.941360,207.406219 
	C62.411785,210.383408 69.892349,213.335159 77.679939,216.421219 
	C78.514610,211.002304 79.276550,206.055542 80.533485,200.929703 
	C80.630585,200.626495 80.727684,200.323288 80.981232,199.362366 
	C81.278122,198.564148 81.575012,197.765945 82.178642,196.311447 
	C83.374626,195.545135 84.477394,194.512222 85.781845,194.056076 
	C93.827438,191.242691 101.918495,188.559311 110.740532,185.741074 
	C119.159836,182.771942 127.579140,179.802826 136.774384,176.965424 
	C144.530029,174.352112 152.285675,171.738800 160.828522,169.016586 
	C168.884766,166.288651 176.941010,163.560730 185.764847,160.964447 
	C195.841751,157.587234 205.918671,154.210022 216.763107,150.968018 
	C221.958725,149.280136 227.103134,147.407166 232.363022,145.951508 
	C238.844406,144.157822 245.421967,142.711685 252.300079,141.755325 
	C257.667847,144.395050 256.057800,148.701141 254.289230,153.199005 
	C244.859177,156.521591 235.429108,159.844162 225.256775,163.271469 
	C216.822723,166.140488 208.388672,169.009491 199.167252,171.985886 
	C191.778107,174.379395 184.388962,176.772888 176.256699,179.269211 
	C168.503922,181.901672 160.751129,184.534134 152.229858,187.037277 
	C143.486740,190.079742 134.743622,193.122223 125.232224,196.034775 
	C116.459358,199.010605 107.686493,201.986435 98.141663,204.999298 
	C93.766754,205.965210 88.843048,206.906693 88.144684,212.169266 
	C86.444458,224.981445 85.274323,237.866364 84.023903,250.734940 
	C83.213890,259.071259 82.745888,267.440887 81.933105,275.776886 
	C80.709488,288.326263 79.187386,300.847778 78.084175,313.406799 
	C77.782646,316.839386 76.758759,319.099762 73.676781,320.883820 
	C68.628571,323.806030 64.585640,327.827576 63.009445,333.734009 
	C60.373325,343.612335 61.555820,354.270630 75.100174,362.944000 
	C73.097107,371.860199 71.048004,380.846680 69.067039,389.848175 
	C67.827713,395.479614 71.517967,399.949005 77.356209,400.001923 
	C82.701447,400.050354 85.088348,397.792725 86.588112,390.862976 
	C87.507477,392.418579 88.358887,393.587799 88.933784,394.880066 
	C91.163940,399.892883 93.302666,404.946320 95.482246,409.981689 
	C97.022820,413.540802 99.709976,415.412079 103.605034,414.957001 
	C107.473244,414.505096 109.708237,412.446808 111.304535,408.551483 
	C113.300232,403.681488 109.842384,400.717316 108.467422,397.254913 
	C103.954674,385.891174 98.761620,374.797577 93.776955,363.479736 
	C94.458954,362.947327 94.807076,362.529297 95.251526,362.349670 
	C111.911308,355.615356 112.788551,329.341278 97.440712,320.802612 
	C96.171677,320.096588 95.048141,317.756500 95.121109,316.236328 
	C95.554199,307.212372 96.253212,298.196655 97.065552,289.196472 
	C98.303108,275.485260 99.705849,261.788971 101.514992,247.903610 
	C101.610649,247.608978 101.706299,247.314362 101.972145,246.124939 
	C102.021782,243.096344 102.071426,240.067734 102.833862,236.583054 
	C102.833862,233.475906 102.833862,230.368759 102.833862,226.744095 
	C110.635742,229.697067 117.796768,232.407471 125.315720,235.769150 
	C126.539673,236.178604 127.778976,236.547501 128.985092,237.004089 
	C136.980194,240.030807 144.968185,243.076324 153.299805,246.759918 
	C161.533051,250.117874 169.766281,253.475830 178.744934,256.990784 
	C185.794678,259.677612 192.844406,262.364471 200.241928,265.705139 
	C208.459549,268.820496 216.677170,271.935852 225.242554,275.704315 
	C227.342255,276.522491 229.438049,277.350861 231.542343,278.157043 
	C239.346375,281.146912 247.153214,284.129395 255.349304,287.779999 
	C264.913696,284.224762 274.478058,280.669525 284.813110,277.015900 
	C292.541473,273.955170 300.269836,270.894440 308.728699,267.741425 
	C315.818695,264.772156 322.908722,261.802887 330.746368,258.964874 
	C337.830566,255.921051 344.914734,252.877228 352.747711,249.963882 
	C360.831421,246.587036 368.915131,243.210190 377.747559,239.963440 
	C386.634125,236.264801 395.520691,232.566147 405.213165,228.917694 
	C415.489563,224.649979 425.765961,220.382263 436.812836,216.015640 
	C450.200409,210.675491 463.602997,205.372406 476.966766,199.973389 
	C481.159576,198.279480 481.870941,194.468842 480.821655,190.869232 
	C480.083801,188.338089 478.174377,185.125824 475.964539,184.214386 
	C462.790649,178.780853 449.377228,173.928223 435.678070,168.236328 
	C425.466248,164.452744 415.254395,160.669144 404.692230,156.248276 
	C395.794281,152.887665 386.896362,149.527069 377.332520,145.841431 
	C369.571442,142.858627 361.810333,139.875839 353.700104,136.253540 
	C345.799530,133.224579 337.898956,130.195602 329.322968,126.837631 
	C322.548187,124.280602 315.773376,121.723572 308.331970,118.842133 
	C300.220551,115.616890 292.109161,112.391655 283.322418,108.835709 
	C278.139771,106.670067 273.047668,104.241837 267.748322,102.414612 
	C262.716797,100.679718 257.822662,97.016815 251.308075,100.215553 
	C248.372940,101.476860 245.452698,102.774284 242.499878,103.992714 
	C233.659363,107.640564 224.806091,111.257507 215.187195,114.989044 
	C204.989731,119.036781 194.792267,123.084518 183.786850,127.078003 
	C175.524231,130.440735 167.261597,133.803467 158.246033,137.034760 
	C150.496445,140.075546 142.746857,143.116333 134.273102,146.234879 
M181.697479,274.243347 
	C174.479248,271.457245 167.261032,268.671143 159.697998,265.242249 
	C152.498337,262.479675 145.298660,259.717102 137.732483,256.298035 
	C129.929245,253.301331 122.125999,250.304626 113.999077,247.183594 
	C113.999077,275.223236 113.998436,302.708405 113.999710,330.193542 
	C113.999916,334.608398 116.751740,337.546844 120.370255,338.648804 
	C125.738510,340.283691 131.439499,340.825958 137.699951,342.183563 
	C144.785828,344.160370 151.871719,346.137177 159.326431,348.772278 
	C167.217026,351.459229 175.107635,354.146210 183.743439,356.990051 
	C190.146210,359.695862 196.548965,362.401703 203.278122,365.739258 
	C211.503906,370.195587 219.729706,374.651917 228.267014,379.725830 
	C235.469269,385.497131 242.671524,391.268433 250.213882,397.718719 
	C255.845779,401.470032 260.222961,400.911957 265.110321,396.493866 
	C269.903625,392.160645 275.053345,388.221710 280.684998,383.826050 
	C289.471039,378.255463 298.257111,372.684875 307.695984,366.816650 
	C315.811401,362.915924 323.926819,359.015198 332.827942,355.015381 
	C340.550995,352.621338 348.274048,350.227325 356.762207,347.709473 
	C364.174622,346.084076 371.587036,344.458649 379.829102,342.949585 
	C384.334381,342.299713 388.822296,341.307434 393.348877,341.078369 
	C400.545105,340.714172 403.991394,337.574188 403.994354,330.517456 
	C404.005493,303.877045 403.998810,277.236633 403.998810,250.596237 
	C403.998810,249.144943 403.998810,247.693649 403.998810,245.189377 
	C395.143463,248.971863 387.050629,252.428635 378.187439,255.986008 
	C370.089966,259.307159 361.992493,262.628326 353.142120,266.014862 
	C345.761444,269.065582 338.380737,272.116333 330.251129,275.037903 
	C322.487854,278.319000 314.724609,281.600067 306.190552,284.985718 
	C296.444885,288.953796 286.699188,292.921875 276.184174,296.988068 
	C274.838623,297.458527 273.493744,297.930817 272.147491,298.399170 
	C265.621185,300.669830 259.400208,304.574585 251.242538,302.011078 
	C243.494370,299.062836 235.746201,296.114624 227.330460,292.843018 
	C219.899963,289.856110 212.469482,286.869202 204.677261,283.235413 
	C203.456512,282.825836 202.222870,282.450745 201.017166,282.000854 
	C194.688400,279.639465 188.366714,277.259125 181.697479,274.243347 
z"/>
<path fill="#2D89FF" opacity="1.000000" stroke="none" 
	d="
M284.042450,277.114288 
	C274.478058,280.669525 264.913696,284.224762 255.163239,286.971405 
	C254.970810,241.737000 254.964432,197.311188 254.958054,152.885376 
	C256.057800,148.701141 257.667847,144.395050 252.138306,140.959412 
	C251.998611,126.828766 252.020660,113.494041 252.042725,100.159309 
	C257.822662,97.016815 262.716797,100.679718 267.748322,102.414612 
	C273.047668,104.241837 278.139771,106.670067 283.660583,109.459091 
	C284.013306,165.759750 284.027863,221.437027 284.042450,277.114288 
z"/>
<path fill="#0AB3FF" opacity="1.000000" stroke="none" 
	d="
M101.038437,248.086334 
	C99.705849,261.788971 98.303108,275.485260 97.065552,289.196472 
	C96.253212,298.196655 95.554199,307.212372 95.121109,316.236328 
	C95.048141,317.756500 96.171677,320.096588 97.440712,320.802612 
	C112.788551,329.341278 111.911308,355.615356 95.251526,362.349670 
	C94.807076,362.529297 94.458954,362.947327 93.776955,363.479736 
	C98.761620,374.797577 103.954674,385.891174 108.467422,397.254913 
	C109.842384,400.717316 113.300232,403.681488 111.304535,408.551483 
	C109.708237,412.446808 107.473244,414.505096 103.605034,414.957001 
	C99.709976,415.412079 97.022820,413.540802 95.482246,409.981689 
	C93.302666,404.946320 91.163940,399.892883 88.933784,394.880066 
	C88.358887,393.587799 87.507477,392.418579 86.588112,390.862976 
	C85.088348,397.792725 82.701447,400.050354 77.356209,400.001923 
	C71.517967,399.949005 67.827713,395.479614 69.067039,389.848175 
	C71.048004,380.846680 73.097107,371.860199 75.100174,362.944000 
	C61.555820,354.270630 60.373325,343.612335 63.009445,333.734009 
	C64.585640,327.827576 68.628571,323.806030 73.676781,320.883820 
	C76.758759,319.099762 77.782646,316.839386 78.084175,313.406799 
	C79.187386,300.847778 80.709488,288.326263 81.933105,275.776886 
	C82.745888,267.440887 83.213890,259.071259 84.023903,250.734940 
	C85.274323,237.866364 86.444458,224.981445 88.144684,212.169266 
	C88.843048,206.906693 93.766754,205.965210 98.771805,205.319916 
	C99.602127,210.087646 99.640114,214.549484 100.042053,218.978271 
	C100.589630,225.011749 101.414879,231.020050 102.121063,237.039139 
	C102.071426,240.067734 102.021782,243.096344 101.729240,246.727081 
	C101.290451,247.554031 101.141151,247.806396 101.038437,248.086334 
z"/>
<path fill="#3283FF" opacity="1.000000" stroke="none" 
	d="
M284.427795,277.065094 
	C284.027863,221.437027 284.013306,165.759750 283.998230,109.624451 
	C292.109161,112.391655 300.220551,115.616890 308.656189,119.420395 
	C308.653625,124.631516 308.050415,129.263947 308.042908,133.897339 
	C307.970703,178.542709 307.998810,223.188248 307.998199,267.833740 
	C300.269836,270.894440 292.541473,273.955170 284.427795,277.065094 
z"/>
<path fill="#2790FF" opacity="1.000000" stroke="none" 
	d="
M254.623642,153.042191 
	C254.964432,197.311188 254.970810,241.737000 254.968079,286.638733 
	C247.153214,284.129395 239.346375,281.146912 231.542343,278.157043 
	C229.438049,277.350861 227.342255,276.522491 225.314789,275.038513 
	C225.591370,272.242523 225.971497,270.112457 225.973724,267.982025 
	C226.010361,233.043640 225.999359,198.105179 225.999054,163.166748 
	C235.429108,159.844162 244.859177,156.521591 254.623642,153.042191 
z"/>
<path fill="#367DFF" opacity="1.000000" stroke="none" 
	d="
M308.363464,267.787598 
	C307.998810,223.188248 307.970703,178.542709 308.042908,133.897339 
	C308.050415,129.263947 308.653625,124.631516 308.989502,119.582596 
	C315.773376,121.723572 322.548187,124.280602 329.661163,127.460152 
	C329.999176,171.666321 329.998962,215.249969 329.998749,258.833618 
	C322.908722,261.802887 315.818695,264.772156 308.363464,267.787598 
z"/>
<path fill="#3A79FF" opacity="1.000000" stroke="none" 
	d="
M330.372559,258.899231 
	C329.998962,215.249969 329.999176,171.666321 329.998871,127.624657 
	C337.898956,130.195602 345.799530,133.224579 353.708984,136.964020 
	C353.478577,139.973358 353.034210,142.271942 353.030975,144.571136 
	C352.985413,176.867142 353.024567,209.163284 352.956482,241.459213 
	C352.950562,244.251251 352.332581,247.042023 351.998901,249.833389 
	C344.914734,252.877228 337.830566,255.921051 330.372559,258.899231 
z"/>
<path fill="#2296FF" opacity="1.000000" stroke="none" 
	d="
M225.627914,163.219116 
	C225.999359,198.105179 226.010361,233.043640 225.973724,267.982025 
	C225.971497,270.112457 225.591370,272.242523 225.140915,274.711975 
	C216.677170,271.935852 208.459549,268.820496 200.314331,265.039062 
	C200.590927,262.909668 200.971359,261.446564 200.973236,259.982971 
	C201.008499,232.556107 201.019958,205.129120 200.953674,177.702362 
	C200.948975,175.760284 200.302628,173.819763 199.954636,171.878510 
	C208.388672,169.009491 216.822723,166.140488 225.627914,163.219116 
z"/>
<path fill="#2C8AFF" opacity="1.000000" stroke="none" 
	d="
M251.998993,302.166931 
	C259.400208,304.574585 265.621185,300.669830 272.147491,298.399170 
	C273.493744,297.930817 274.838623,297.458527 276.728271,297.298218 
	C277.848206,300.851440 278.902893,304.091553 278.923065,307.338135 
	C279.067078,330.483948 278.968872,353.631165 279.045929,376.777649 
	C279.054047,379.222748 279.697784,381.665771 280.046661,384.109741 
	C275.053345,388.221710 269.903625,392.160645 265.110321,396.493866 
	C260.222961,400.911957 255.845779,401.470032 250.409912,397.221252 
	C251.070587,394.727448 251.934128,392.732239 251.939987,390.734558 
	C252.026581,361.212219 251.999283,331.689545 251.998993,302.166931 
z"/>
<path fill="#3F73FF" opacity="1.000000" stroke="none" 
	d="
M352.373291,249.898636 
	C352.332581,247.042023 352.950562,244.251251 352.956482,241.459213 
	C353.024567,209.163284 352.985413,176.867142 353.030975,144.571136 
	C353.034210,142.271942 353.478577,139.973358 353.883545,137.283752 
	C361.810333,139.875839 369.571442,142.858627 377.576599,146.401642 
	C377.547150,149.429047 377.040588,151.895798 377.035736,154.363525 
	C376.979523,182.853363 376.999268,211.343369 376.998840,239.833328 
	C368.915131,243.210190 360.831421,246.587036 352.373291,249.898636 
z"/>
<path fill="#3184FF" opacity="1.000000" stroke="none" 
	d="
M280.365845,383.967896 
	C279.697784,381.665771 279.054047,379.222748 279.045929,376.777649 
	C278.968872,353.631165 279.067078,330.483948 278.923065,307.338135 
	C278.902893,304.091553 277.848206,300.851440 277.112946,297.249146 
	C286.699188,292.921875 296.444885,288.953796 306.584473,285.409668 
	C306.999969,312.927155 307.021576,340.020721 307.043182,367.114288 
	C298.257111,372.684875 289.471039,378.255463 280.365845,383.967896 
z"/>
<path fill="#446DFF" opacity="1.000000" stroke="none" 
	d="
M377.373199,239.898376 
	C376.999268,211.343369 376.979523,182.853363 377.035736,154.363525 
	C377.040588,151.895798 377.547150,149.429047 377.909546,146.564148 
	C386.896362,149.527069 395.794281,152.887665 404.781403,156.983795 
	C404.580383,162.005829 404.035767,166.292801 404.043701,170.578766 
	C404.079651,190.008514 404.271515,209.437958 404.407257,228.867523 
	C395.520691,232.566147 386.634125,236.264801 377.373199,239.898376 
z"/>
<path fill="#446DFF" opacity="1.000000" stroke="none" 
	d="
M378.957825,255.885406 
	C387.050629,252.428635 395.143463,248.971863 403.998810,245.189377 
	C403.998810,247.693649 403.998810,249.144943 403.998810,250.596237 
	C403.998810,277.236633 404.005493,303.877045 403.994354,330.517456 
	C403.991394,337.574188 400.545105,340.714172 393.348877,341.078369 
	C388.822296,341.307434 384.334381,342.299713 379.414429,342.433411 
	C378.985809,313.239960 378.971802,284.562683 378.957825,255.885406 
z"/>
<path fill="#2790FF" opacity="1.000000" stroke="none" 
	d="
M251.620758,302.088989 
	C251.999283,331.689545 252.026581,361.212219 251.939987,390.734558 
	C251.934128,392.732239 251.070587,394.727448 250.239868,396.881775 
	C242.671524,391.268433 235.469269,385.497131 228.121445,378.941742 
	C227.983261,349.827240 227.990631,321.496826 227.998016,293.166412 
	C235.746201,296.114624 243.494370,299.062836 251.620758,302.088989 
z"/>
<path fill="#367DFF" opacity="1.000000" stroke="none" 
	d="
M307.369568,366.965454 
	C307.021576,340.020721 306.999969,312.927155 306.969849,285.357361 
	C314.724609,281.600067 322.487854,278.319000 330.714844,275.500092 
	C331.452301,278.422363 331.956482,280.881775 331.964050,283.342682 
	C332.037628,307.266479 332.028107,331.190491 332.042236,355.114471 
	C323.926819,359.015198 315.811401,362.915924 307.369568,366.965454 
z"/>
<path fill="#2395FF" opacity="1.000000" stroke="none" 
	d="
M227.664246,293.004700 
	C227.990631,321.496826 227.983261,349.827240 227.965683,378.632935 
	C219.729706,374.651917 211.503906,370.195587 203.280396,365.032562 
	C203.521790,362.032959 203.963150,359.740570 203.968597,357.447113 
	C204.021042,335.363464 203.967789,313.279480 204.045685,291.195984 
	C204.054291,288.756958 204.692688,286.320129 205.038986,283.882294 
	C212.469482,286.869202 219.899963,289.856110 227.664246,293.004700 
z"/>
<path fill="#11ABFF" opacity="1.000000" stroke="none" 
	d="
M136.998871,341.833313 
	C131.439499,340.825958 125.738510,340.283691 120.370255,338.648804 
	C116.751740,337.546844 113.999916,334.608398 113.999710,330.193542 
	C113.998436,302.708405 113.999077,275.223236 113.999077,247.183594 
	C122.125999,250.304626 129.929245,253.301331 137.670380,256.965454 
	C137.405533,259.595795 137.029251,261.558502 137.026276,263.521759 
	C136.986603,289.625549 136.999268,315.729431 136.998871,341.833313 
z"/>
<path fill="#1E9BFF" opacity="1.000000" stroke="none" 
	d="
M199.560944,171.932190 
	C200.302628,173.819763 200.948975,175.760284 200.953674,177.702362 
	C201.019958,205.129120 201.008499,232.556107 200.973236,259.982971 
	C200.971359,261.446564 200.590927,262.909668 200.140442,264.712158 
	C192.844406,262.364471 185.794678,259.677612 178.372375,256.454224 
	C178.000031,232.957291 178.032333,209.996826 177.956436,187.036743 
	C177.947754,184.412262 177.333374,181.789810 176.999847,179.166412 
	C184.388962,176.772888 191.778107,174.379395 199.560944,171.932190 
z"/>
<path fill="#3A79FF" opacity="1.000000" stroke="none" 
	d="
M332.435089,355.064941 
	C332.028107,331.190491 332.037628,307.266479 331.964050,283.342682 
	C331.956482,280.881775 331.452301,278.422363 331.089294,275.564697 
	C338.380737,272.116333 345.761444,269.065582 353.795898,266.257690 
	C354.965973,268.872284 355.920624,271.242188 355.931091,273.616211 
	C356.040192,298.354858 355.997620,323.094147 355.997101,347.833282 
	C348.274048,350.227325 340.550995,352.621338 332.435089,355.064941 
z"/>
<path fill="#3F73FF" opacity="1.000000" stroke="none" 
	d="
M356.379639,347.771362 
	C355.997620,323.094147 356.040192,298.354858 355.931091,273.616211 
	C355.920624,271.242188 354.965973,268.872284 354.172333,266.224976 
	C361.992493,262.628326 370.089966,259.307159 378.572632,255.935699 
	C378.971802,284.562683 378.985809,313.239960 378.999634,342.375244 
	C371.587036,344.458649 364.174622,346.084076 356.379639,347.771362 
z"/>
<path fill="#16A5FF" opacity="1.000000" stroke="none" 
	d="
M137.349411,342.008423 
	C136.999268,315.729431 136.986603,289.625549 137.026276,263.521759 
	C137.029251,261.558502 137.405533,259.595795 137.853638,257.293701 
	C145.298660,259.717102 152.498337,262.479675 159.860992,266.039551 
	C160.015961,291.484467 160.037109,316.132111 159.954498,340.779449 
	C159.946304,343.225372 159.305054,345.669159 158.957611,348.113953 
	C151.871719,346.137177 144.785828,344.160370 137.349411,342.008423 
z"/>
<path fill="#4967FF" opacity="1.000000" stroke="none" 
	d="
M404.810211,228.892609 
	C404.271515,209.437958 404.079651,190.008514 404.043701,170.578766 
	C404.035767,166.292801 404.580383,162.005829 404.956573,157.302429 
	C415.254395,160.669144 425.466248,164.452744 435.851318,169.034668 
	C436.030518,185.260193 436.036407,200.687363 436.042328,216.114532 
	C425.765961,220.382263 415.489563,224.649979 404.810211,228.892609 
z"/>
<path fill="#1AA0FF" opacity="1.000000" stroke="none" 
	d="
M159.142029,348.443115 
	C159.305054,345.669159 159.946304,343.225372 159.954498,340.779449 
	C160.037109,316.132111 160.015961,291.484467 160.033386,266.360962 
	C167.261032,268.671143 174.479248,271.457245 181.860657,275.040283 
	C182.348618,302.835846 182.673416,329.834503 182.998230,356.833160 
	C175.107635,354.146210 167.217026,351.459229 159.142029,348.443115 
z"/>
<path fill="#1E9BFF" opacity="1.000000" stroke="none" 
	d="
M183.370834,356.911621 
	C182.673416,329.834503 182.348618,302.835846 182.033203,275.361267 
	C188.366714,277.259125 194.688400,279.639465 201.017166,282.000854 
	C202.222870,282.450745 203.456512,282.825836 204.858124,283.558838 
	C204.692688,286.320129 204.054291,288.756958 204.045685,291.195984 
	C203.967789,313.279480 204.021042,335.363464 203.968597,357.447113 
	C203.963150,359.740570 203.521790,362.032959 203.117203,364.716705 
	C196.548965,362.401703 190.146210,359.695862 183.370834,356.911621 
z"/>
<path fill="#19A1FF" opacity="1.000000" stroke="none" 
	d="
M176.628265,179.217804 
	C177.333374,181.789810 177.947754,184.412262 177.956436,187.036743 
	C178.032333,209.996826 178.000031,232.957291 177.999664,256.375702 
	C169.766281,253.475830 161.533051,250.117874 153.138336,245.961853 
	C152.984009,225.831406 152.991180,206.498993 152.998352,187.166595 
	C160.751129,184.534134 168.503922,181.901672 176.628265,179.217804 
z"/>
<path fill="#05B9FF" opacity="1.000000" stroke="none" 
	d="
M80.038483,201.108795 
	C79.276550,206.055542 78.514610,211.002304 77.679939,216.421219 
	C69.892349,213.335159 62.411785,210.383408 54.941360,207.406219 
	C49.411125,205.202255 43.884933,202.987564 38.374146,200.735550 
	C34.223240,199.039261 32.554474,196.093903 32.883987,191.459595 
	C33.178230,187.321335 35.420811,185.338593 38.803249,183.986252 
	C51.957649,178.726990 65.119049,173.485245 78.648819,168.616180 
	C79.346367,176.597137 79.572769,184.205505 80.074524,191.795685 
	C80.190598,193.551636 81.247780,195.245361 81.871902,196.967728 
	C81.575012,197.765945 81.278122,198.564148 80.744156,199.851624 
	C80.308250,200.570816 80.152046,200.826782 80.038483,201.108795 
z"/>
<path fill="#2691FF" opacity="1.000000" stroke="none" 
	d="
M251.675400,100.187431 
	C252.020660,113.494041 251.998611,126.828766 251.967255,140.639420 
	C245.421967,142.711685 238.844406,144.157822 232.363022,145.951508 
	C227.103134,147.407166 221.958725,149.280136 216.380188,150.442398 
	C215.984116,138.240021 215.970963,126.563271 215.957809,114.886520 
	C224.806091,111.257507 233.659363,107.640564 242.499878,103.992714 
	C245.452698,102.774284 248.372940,101.476860 251.675400,100.187431 
z"/>
<path fill="#14A7FF" opacity="1.000000" stroke="none" 
	d="
M152.614105,187.101929 
	C152.991180,206.498993 152.984009,225.831406 152.967667,245.639771 
	C144.968185,243.076324 136.980194,240.030807 128.985092,237.004089 
	C127.778976,236.547501 126.539673,236.178604 125.222771,235.026428 
	C125.420013,232.000412 125.941025,229.719116 125.960808,227.433487 
	C126.051048,217.011230 126.000465,206.587738 126.000504,196.164703 
	C134.743622,193.122223 143.486740,190.079742 152.614105,187.101929 
z"/>
<path fill="#505FFF" opacity="1.000000" stroke="none" 
	d="
M436.427582,216.065094 
	C436.036407,200.687363 436.030518,185.260193 436.034393,169.356812 
	C449.377228,173.928223 462.790649,178.780853 475.964539,184.214386 
	C478.174377,185.125824 480.083801,188.338089 480.821655,190.869232 
	C481.870941,194.468842 481.159576,198.279480 476.966766,199.973389 
	C463.602997,205.372406 450.200409,210.675491 436.427582,216.065094 
z"/>
<path fill="#1E9BFF" opacity="1.000000" stroke="none" 
	d="
M215.572510,114.937782 
	C215.970963,126.563271 215.984116,138.240021 215.996429,150.374786 
	C205.918671,154.210022 195.841751,157.587234 185.381577,160.440613 
	C184.863800,148.988602 184.729309,138.060425 184.594818,127.132256 
	C194.792267,123.084518 204.989731,119.036781 215.572510,114.937782 
z"/>
<path fill="#0AB3FF" opacity="1.000000" stroke="none" 
	d="
M82.025269,196.639587 
	C81.247780,195.245361 80.190598,193.551636 80.074524,191.795685 
	C79.572769,184.205505 79.346367,176.597137 79.011566,168.579010 
	C89.090279,164.195572 99.177216,160.228485 109.630745,156.672424 
	C109.996368,166.666534 109.995399,176.249619 109.994438,185.832718 
	C101.918495,188.559311 93.827438,191.242691 85.781845,194.056076 
	C84.477394,194.512222 83.374626,195.545135 82.025269,196.639587 
z"/>
<path fill="#1AA0FF" opacity="1.000000" stroke="none" 
	d="
M184.190826,127.105133 
	C184.729309,138.060425 184.863800,148.988602 184.997772,160.374786 
	C176.941010,163.560730 168.884766,166.288651 160.425934,168.594360 
	C160.015579,166.360825 160.058167,164.547668 159.991425,162.738541 
	C159.677032,154.213821 159.332657,145.690201 158.998978,137.166199 
	C167.261597,133.803467 175.524231,130.440735 184.190826,127.105133 
z"/>
<path fill="#11ABFF" opacity="1.000000" stroke="none" 
	d="
M125.616364,196.099731 
	C126.000465,206.587738 126.051048,217.011230 125.960808,227.433487 
	C125.941025,229.719116 125.420013,232.000412 125.043808,234.700806 
	C117.796768,232.407471 110.635742,229.697067 102.833862,226.744095 
	C102.833862,230.368759 102.833862,233.475906 102.477463,236.811096 
	C101.414879,231.020050 100.589630,225.011749 100.042053,218.978271 
	C99.640114,214.549484 99.602127,210.087646 99.157791,205.301422 
	C107.686493,201.986435 116.459358,199.010605 125.616364,196.099731 
z"/>
<path fill="#11ABFF" opacity="1.000000" stroke="none" 
	d="
M110.367485,185.786896 
	C109.995399,176.249619 109.996368,166.666534 109.996597,156.625412 
	C118.088280,152.856552 126.180687,149.545715 134.724792,146.594238 
	C135.450470,156.913635 135.724457,166.873672 135.998444,176.833710 
	C127.579140,179.802826 119.159836,182.771942 110.367485,185.786896 
z"/>
<path fill="#16A5FF" opacity="1.000000" stroke="none" 
	d="
M136.386414,176.899567 
	C135.724457,166.873672 135.450470,156.913635 135.086884,146.555374 
	C142.746857,143.116333 150.496445,140.075546 158.622498,137.100479 
	C159.332657,145.690201 159.677032,154.213821 159.991425,162.738541 
	C160.058167,164.547668 160.015579,166.360825 160.032349,168.648804 
	C152.285675,171.738800 144.530029,174.352112 136.386414,176.899567 
z"/>
<path fill="#11ABFF" opacity="1.000000" stroke="none" 
	d="
M101.276718,247.994965 
	C101.141151,247.806396 101.290451,247.554031 101.644150,247.174469 
	C101.706299,247.314362 101.610649,247.608978 101.276718,247.994965 
z"/>
<path fill="#0AB3FF" opacity="1.000000" stroke="none" 
	d="
M80.285980,201.019257 
	C80.152046,200.826782 80.308250,200.570816 80.665939,200.180481 
	C80.727684,200.323288 80.630585,200.626495 80.285980,201.019257 
z"/>
</svg>